<svg width="390" height="797" viewBox="0 0 390 797" fill="none" xmlns="http://www.w3.org/2000/svg">
<g clip-path="url(#clip0_86_3447)">
<g clip-path="url(#clip1_86_3447)">
<path fill-rule="evenodd" clip-rule="evenodd" d="M64.9616 681.602C54.2137 685.036 15.3905 685.743 -1.50952 656.471C-4.13305 651.927 -5.26033 646.672 -4.73167 641.452C-4.20302 636.232 -2.04523 631.31 1.43604 627.384C4.91731 623.458 9.54556 620.727 14.6652 619.578C19.7849 618.429 25.1363 618.919 29.9616 620.981C30.5893 615.771 32.84 610.891 36.3952 607.032C39.9503 603.173 44.6296 600.53 49.7701 599.479C54.9107 598.427 60.2519 599.019 65.0372 601.171C69.8225 603.323 73.8092 606.927 76.4328 611.471C93.3328 640.743 73.3096 674.011 64.9616 681.602ZM59.9616 672.942C71.1466 661.115 78.26 634.636 67.7725 616.471C65.7834 613.026 62.5071 610.512 58.6644 609.482C54.8217 608.452 50.7274 608.991 47.2821 610.981C41.6313 614.243 37.9418 621.183 36.2116 631.806C26.1465 627.993 18.2919 627.718 12.6411 630.981C9.19585 632.97 6.68187 636.246 5.65223 640.089C4.62258 643.931 5.16161 648.026 7.15073 651.471C17.6382 669.636 44.1266 676.715 59.9616 672.942Z" fill="white"/>
</g>
<g clip-path="url(#clip2_86_3447)">
<path fill-rule="evenodd" clip-rule="evenodd" d="M363.504 269.341C358.182 264.501 345.416 243.29 356.19 224.628C357.863 221.731 360.405 219.433 363.456 218.061C366.507 216.689 369.912 216.311 373.189 216.982C376.467 217.653 379.45 219.337 381.717 221.798C383.983 224.258 385.418 227.369 385.819 230.691C388.895 229.377 392.307 229.064 395.571 229.797C398.835 230.529 401.786 232.27 404.005 234.773C406.225 237.276 407.6 240.414 407.938 243.743C408.275 247.071 407.556 250.421 405.883 253.318C395.108 271.98 370.356 271.53 363.504 269.341ZM366.692 263.819C376.787 266.225 393.675 261.711 400.362 250.13C401.63 247.934 401.974 245.323 401.317 242.873C400.661 240.423 399.058 238.334 396.861 237.066C393.259 234.986 388.251 235.161 381.834 237.592C380.731 230.819 378.378 226.395 374.776 224.315C372.579 223.047 369.969 222.703 367.519 223.36C365.069 224.016 362.98 225.619 361.712 227.816C355.025 239.397 359.561 256.279 366.692 263.819Z" fill="white"/>
</g>
<g clip-path="url(#clip3_86_3447)">
<path fill-rule="evenodd" clip-rule="evenodd" d="M318.957 754.484C312.765 748.854 297.914 724.178 310.449 702.468C312.395 699.097 315.352 696.424 318.901 694.828C322.45 693.232 326.412 692.792 330.225 693.573C334.037 694.353 337.508 696.313 340.145 699.175C342.782 702.038 344.451 705.657 344.917 709.521C348.496 707.992 352.465 707.628 356.262 708.481C360.059 709.333 363.492 711.359 366.074 714.27C368.656 717.182 370.257 720.833 370.649 724.705C371.041 728.577 370.205 732.474 368.259 735.844C355.724 757.555 326.929 757.031 318.957 754.484ZM322.666 748.061C334.411 750.859 354.057 745.609 361.836 732.136C363.311 729.58 363.711 726.544 362.947 723.693C362.183 720.843 360.319 718.413 357.763 716.938C353.572 714.518 347.746 714.722 340.281 717.55C338.998 709.671 336.261 704.524 332.07 702.104C329.515 700.628 326.478 700.229 323.628 700.992C320.778 701.756 318.348 703.621 316.872 706.176C309.094 719.649 314.37 739.289 322.666 748.061Z" fill="white"/>
</g>
<g clip-path="url(#clip4_86_3447)">
<path fill-rule="evenodd" clip-rule="evenodd" d="M59.6252 86.4845C51.6534 89.0316 22.8581 89.5554 10.3233 67.8445C8.37742 64.4741 7.54131 60.5769 7.93342 56.705C8.32552 52.833 9.92597 49.1826 12.508 46.2707C15.0901 43.3589 18.5229 41.3333 22.3202 40.4809C26.1174 39.6284 30.0866 39.9924 33.6656 41.5211C34.1311 37.6573 35.8005 34.0379 38.4374 31.1756C41.0742 28.3133 44.5449 26.3532 48.3576 25.573C52.1704 24.7928 56.132 25.232 59.6812 26.8284C63.2305 28.4248 66.1875 31.0974 68.1334 34.4678C80.6682 56.1787 65.8169 80.8543 59.6252 86.4845ZM55.9167 80.0612C64.2126 71.2891 69.4887 51.6493 61.7101 38.1763C60.2347 35.621 57.8047 33.7563 54.9545 32.9927C52.1044 32.229 49.0676 32.6288 46.5123 34.1041C42.321 36.5239 39.5845 41.671 38.3012 49.5503C30.8359 46.722 25.0101 46.5184 20.8189 48.9382C18.2635 50.4135 16.3989 52.8435 15.6352 55.6937C14.8715 58.5438 15.2713 61.5806 16.7466 64.136C24.5253 77.6089 44.1718 82.8596 55.9167 80.0612Z" fill="white"/>
</g>
</g>
<defs>
<clipPath id="clip0_86_3447">
<rect width="390" height="797" fill="white"/>
</clipPath>
<clipPath id="clip1_86_3447">
<rect width="120" height="120" fill="white" transform="translate(-37 625) rotate(-30)"/>
</clipPath>
<clipPath id="clip2_86_3447">
<rect width="76.507" height="76.507" fill="white" transform="translate(362.253 195) rotate(30)"/>
</clipPath>
<clipPath id="clip3_86_3447">
<rect width="89.0045" height="89.0045" fill="white" transform="translate(317.502 668) rotate(30)"/>
</clipPath>
<clipPath id="clip4_86_3447">
<rect width="89.0045" height="89.0045" fill="white" transform="translate(-16 44.502) rotate(-30)"/>
</clipPath>
</defs>
</svg>
