<svg width="237" height="222" viewBox="0 0 237 222" fill="none" xmlns="http://www.w3.org/2000/svg">
<g clip-path="url(#clip0_86_3467)">
<path d="M44.6343 118.858C44.573 115.867 44.8593 112.117 45.9026 108.49C46.8845 105.048 48.6436 104.331 51.2824 107.097C54.5758 110.539 57.8487 114.023 61.2648 117.362C62.7172 118.776 63.2899 120.313 63.474 122.3C64.2309 130.107 67.8107 136.458 73.4155 141.908C85.7708 153.894 97.9419 166.085 110.215 178.154C115.391 183.255 120.116 183.46 125.373 178.481C138.956 165.553 152.456 152.522 165.896 139.47C170.335 135.167 172.953 129.717 173.403 123.611C173.669 119.985 175.101 117.608 177.617 115.354C180.154 113.101 182.445 110.56 184.858 108.122C186.147 106.831 187.108 104.802 189.399 105.52C191.384 106.155 191.384 108.224 191.691 109.802C194.554 125.107 191.916 139.45 181.033 150.76C166.632 165.737 151.556 180.121 136.215 194.135C125.578 203.847 109.949 203.704 99.3943 193.828C84.4616 179.854 69.9585 165.409 55.8236 150.616C47.7436 142.175 44.3684 131.418 44.6548 118.858H44.6343Z" fill="#EB5F5A"/>
<path d="M117.273 57.4922C117.273 57.4922 117.252 57.4922 117.252 57.4717C117.252 57.4717 117.252 57.4717 117.273 57.5127V57.4922Z" fill="#EB5F5A"/>
<path d="M183.467 45.8138C169.251 26.6155 142.617 21.0424 121.814 33.1515C119.175 34.6882 117.457 34.4423 114.961 33.049C83.3776 15.2645 44.614 37.946 44.5935 74.1913C44.6549 87.038 48.9301 98.2046 58.0738 107.322C71.0837 120.312 84.0935 133.323 97.2261 146.19C109.377 158.094 126.13 158.135 138.342 146.457C151.638 133.753 164.914 121.029 178.149 108.265C195.414 91.6071 197.643 64.9916 183.447 45.8138H183.467ZM166.939 92.2012C153.234 106.421 138.751 119.862 124.432 133.466C120.239 137.441 115.35 137.339 111.156 133.262C97.4102 119.8 83.5207 106.462 70.2859 92.4881C60.2421 81.8952 61.2445 64.9712 71.5541 54.4602C81.9661 43.8263 98.8421 42.9248 109.95 52.5752C112.302 54.6241 114.777 56.2633 117.682 57.3082C118.173 57.3082 118.664 57.3082 119.155 57.3082C122.039 56.2838 124.555 54.788 126.907 52.7186C131.428 48.7437 136.624 45.9777 142.924 46.1621H148.059C159.248 46.7768 166.939 52.7391 171.296 62.6149C175.94 73.1463 174.978 83.8417 166.939 92.1808V92.2012Z" fill="#EB5F5A"/>
<path d="M91.8666 72.7977C100.028 72.8386 107.761 74.6827 114.797 78.842C117.457 80.4196 119.318 80.3991 122.08 78.8625C135.355 71.4044 149.224 70.7078 163.4 76.0964C168.719 78.1044 169.107 79.2108 166.509 84.415C165.691 86.0746 164.587 87.6318 163.462 89.107C160.741 92.6722 158.123 94.7211 152.743 92.7541C143.62 89.4144 134.905 92.0984 127.419 98.0813C119.584 104.33 117.354 104.412 109.806 98.2862C102.299 92.2009 93.6053 89.9676 84.4616 92.959C79.5727 94.5571 76.7498 93.2868 74.0905 89.6602C73.5792 88.9841 72.9859 88.3694 72.4745 87.6728C67.2174 80.4196 67.8925 78.2683 76.3407 75.3793C81.3728 73.6582 86.5481 72.7567 91.8666 72.7772V72.7977Z" fill="#EB5F5A"/>
</g>
<defs>
<clipPath id="clip0_86_3467">
<rect width="237" height="222" fill="white"/>
</clipPath>
</defs>
</svg>
