<svg width="131" height="53" viewBox="0 0 131 53" fill="none" xmlns="http://www.w3.org/2000/svg">
<g id="Logo OJO 02" clip-path="url(#clip0_86_3468)">
<path id="Vector" d="M75.3212 2.58561C75.3378 1.6514 75.0379 0.967419 73.9217 1.05083C71.4227 1.05083 68.9236 1.05083 66.4246 1.05083C66.158 1.11756 65.8748 1.18429 65.6082 1.2677C64.5753 2.63566 65.1251 4.22049 65.1084 5.68854C65.0418 16.3653 65.1418 27.0587 64.9752 37.7355C64.8919 43.0071 62.5594 44.642 57.4281 43.5076C56.3618 43.274 55.3455 42.7735 54.3293 42.3732C53.5795 42.0896 52.9798 41.6391 52.2134 42.6234C49.1146 46.6272 50.3474 50.5475 55.1456 51.8821C57.7279 52.5995 60.3269 52.7663 62.9759 52.5828C69.79 52.099 74.005 47.9117 74.7214 40.9385C76.0875 28.1764 75.0046 15.381 75.3212 2.60229V2.58561ZM66.4413 38.8198V38.6697C66.4413 38.6697 66.5912 38.7698 66.7245 38.703C67.091 38.5028 66.7578 38.8699 66.4413 38.8198Z" fill="#EB5F5A"/>
<path id="Vector_2" d="M107.376 0.0003657C98.0625 -0.0997287 91.3484 3.03656 86.7835 10.21C80.9191 19.4187 81.6022 35.8175 88.2163 44.4757C89.5658 46.244 91.1818 47.7454 93.0811 48.9299C108.092 58.3721 126.218 50.6315 129.7 33.2984C133.499 14.2972 123.486 -0.0329991 107.376 0.0003657ZM120.454 24.3066C120.171 28.3104 120.154 32.3475 118.588 36.1511C116.339 41.6396 112.224 44.3589 106.326 44.2921C100.528 44.2087 96.2632 41.306 94.3639 35.7174C92.2481 29.4949 92.2481 23.1389 94.3639 16.9163C96.4631 10.7605 101.311 7.89114 107.975 8.39161C113.973 8.84204 118.205 12.9292 119.604 19.6022C119.887 20.9535 120.154 22.3047 120.421 23.656C120.287 23.8729 120.287 24.0898 120.454 24.3066C120.554 24.2232 120.637 24.1398 120.72 24.0564C120.72 24.0564 120.72 24.0731 120.72 24.0898C120.637 24.2399 120.537 24.3233 120.454 24.3233V24.3066Z" fill="#EB5F5A"/>
<path id="Vector_3" d="M25.0909 -0.000610862C15.7778 -0.100705 9.06376 3.03559 4.49884 10.209C-1.36557 19.4177 -0.682498 35.8165 5.93163 44.4747C7.28111 46.243 8.89715 47.7444 10.7964 48.9289C25.8073 58.3711 43.9337 50.6305 47.4157 33.2975C51.2142 14.2962 41.2014 -0.0339757 25.0909 -0.000610862ZM38.1692 24.3056C37.886 28.3094 37.8694 32.3466 36.3033 36.1502C34.0541 41.6387 29.9391 44.3579 24.0413 44.2912C18.2436 44.2078 13.9785 41.305 12.0793 35.7164C9.96341 29.4939 9.96341 23.1379 12.0793 16.9153C14.1785 10.7595 19.0266 7.89017 25.6907 8.39064C31.6884 8.84106 35.9201 12.9283 37.3196 19.6012C37.6028 20.9525 37.8694 22.3038 38.1359 23.655C38.0026 23.8719 38.0026 24.0888 38.1692 24.3056C38.2692 24.2222 38.3525 24.1388 38.4358 24.0554C38.4358 24.0554 38.4358 24.0721 38.4358 24.0888C38.3525 24.2389 38.2525 24.3223 38.1692 24.3223V24.3056Z" fill="#EB5F5A"/>
</g>
<defs>
<clipPath id="clip0_86_3468">
<rect width="130" height="53" fill="white" transform="translate(0.5)"/>
</clipPath>
</defs>
</svg>
