<svg width="122" height="122" viewBox="0 0 122 122" fill="none" xmlns="http://www.w3.org/2000/svg">
<path d="M110.562 61C110.562 47.8552 105.341 35.2488 96.046 25.954C86.7512 16.6592 74.1448 11.4375 61 11.4375C47.8552 11.4375 35.2488 16.6592 25.954 25.954C16.6592 35.2488 11.4375 47.8552 11.4375 61C11.4375 74.1448 16.6592 86.7512 25.954 96.046C35.2488 105.341 47.8552 110.562 61 110.562C74.1448 110.562 86.7512 105.341 96.046 96.046C105.341 86.7512 110.562 74.1448 110.562 61ZM0 61C0 44.8218 6.42677 29.3062 17.8665 17.8665C29.3062 6.42677 44.8218 0 61 0C77.1782 0 92.6938 6.42677 104.134 17.8665C115.573 29.3062 122 44.8218 122 61C122 77.1782 115.573 92.6938 104.134 104.134C92.6938 115.573 77.1782 122 61 122C44.8218 122 29.3062 115.573 17.8665 104.134C6.42677 92.6938 0 77.1782 0 61ZM83.2793 73.4859C87.7352 72.4375 91.8336 76.3453 89.3555 80.1816C83.4938 89.2602 72.9855 95.3125 60.9762 95.3125C48.9668 95.3125 38.4586 89.2602 32.5969 80.1816C30.1188 76.3453 34.2172 72.4375 38.673 73.4859C45.5594 75.1062 53.0891 75.9879 60.9762 75.9879C68.8633 75.9879 76.393 75.1062 83.2793 73.4859ZM34.4078 49.5625C34.4078 47.5402 35.2112 45.6008 36.6411 44.1708C38.0711 42.7408 40.0105 41.9375 42.0328 41.9375C44.0551 41.9375 45.9945 42.7408 47.4245 44.1708C48.8545 45.6008 49.6578 47.5402 49.6578 49.5625C49.6578 51.5848 48.8545 53.5242 47.4245 54.9542C45.9945 56.3842 44.0551 57.1875 42.0328 57.1875C40.0105 57.1875 38.0711 56.3842 36.6411 54.9542C35.2112 53.5242 34.4078 51.5848 34.4078 49.5625ZM80.1578 41.9375C82.1801 41.9375 84.1195 42.7408 85.5495 44.1708C86.9795 45.6008 87.7828 47.5402 87.7828 49.5625C87.7828 51.5848 86.9795 53.5242 85.5495 54.9542C84.1195 56.3842 82.1801 57.1875 80.1578 57.1875C78.1355 57.1875 76.1961 56.3842 74.7661 54.9542C73.3362 53.5242 72.5328 51.5848 72.5328 49.5625C72.5328 47.5402 73.3362 45.6008 74.7661 44.1708C76.1961 42.7408 78.1355 41.9375 80.1578 41.9375Z" fill="#64D220"/>
</svg>
