<svg width="122" height="122" viewBox="0 0 122 122" fill="none" xmlns="http://www.w3.org/2000/svg">
<path d="M61 0C27.3107 0 0 27.3107 0 61C0 94.6893 27.3107 122 61 122C94.6893 122 122 94.6893 122 61C122 27.3107 94.6893 0 61 0ZM98.3823 98.3823C89.113 107.624 76.7349 113.084 63.66 113.697C50.5851 114.311 37.75 110.035 27.6557 101.702C17.5613 93.3698 10.9309 81.5774 9.05618 68.6231C7.1815 55.6687 10.1969 42.4804 17.5149 31.6279C24.8329 20.7754 35.9292 13.0362 48.6417 9.91815C61.3542 6.80014 74.7722 8.52672 86.2812 14.7615C97.7902 20.9962 106.566 31.2925 110.898 43.6441C115.23 55.9957 114.809 69.5178 109.715 81.5756C107.061 87.8584 103.212 93.5663 98.3823 98.3823Z" fill="#FF4343"/>
<path d="M38.6331 77.2667H83.3664V85.4H38.6331V77.2667ZM49.4682 53.894L43.3576 48.4622L48.7891 42.3518L42.7104 36.9482L37.2787 43.0589L31.1682 37.6274L25.7646 43.706L31.8753 49.1378L26.4438 55.2482L32.5224 60.6518L37.9542 54.5412L44.0646 59.9727L49.4682 53.894ZM93.5224 42.3518L87.4438 36.9482L82.012 43.0589L75.9016 37.6274L70.498 43.706L76.6087 49.1378L71.1771 55.2482L77.2558 60.6518L82.6876 54.5412L88.798 59.9727L94.2016 53.894L88.0909 48.4622L93.5224 42.3518Z" fill="#FF4343"/>
</svg>
